<svg width="33" height="40" viewBox="0 0 33 40" fill="none" xmlns="http://www.w3.org/2000/svg">
    <mask id="path-1-inside-1_326_1650" fill="white">
        <path fill-rule="evenodd" clip-rule="evenodd" d="M2.0083 0C0.903731 0 0.00830078 0.895431 0.00830078 2V38C0.00830078 39.1046 0.903731 40 2.0083 40H30.0083C31.1129 40 32.0083 39.1046 32.0083 38L32.0083 8L24.0083 0H2.0083Z"/>
    </mask>
    <path fill-rule="evenodd" clip-rule="evenodd" d="M2.0083 0C0.903731 0 0.00830078 0.895431 0.00830078 2V38C0.00830078 39.1046 0.903731 40 2.0083 40H30.0083C31.1129 40 32.0083 39.1046 32.0083 38L32.0083 8L24.0083 0H2.0083Z" fill="#FEECEB"/>
    <path d="M32.0083 38H33.0083H32.0083ZM32.0083 8H33.0083L33.0083 7.58579L32.7154 7.29289L32.0083 8ZM24.0083 0L24.7154 -0.707107L24.4225 -1H24.0083V0ZM1.0083 2C1.0083 1.44772 1.45602 1 2.0083 1V-1C0.351446 -1 -0.991699 0.343147 -0.991699 2H1.0083ZM1.0083 38V2H-0.991699V38H1.0083ZM2.0083 39C1.45602 39 1.0083 38.5523 1.0083 38H-0.991699C-0.991699 39.6569 0.351446 41 2.0083 41V39ZM30.0083 39H2.0083V41H30.0083V39ZM31.0083 38C31.0083 38.5523 30.5606 39 30.0083 39V41C31.6652 41 33.0083 39.6569 33.0083 38H31.0083ZM31.0083 8L31.0083 38H33.0083V8H31.0083ZM32.7154 7.29289L24.7154 -0.707107L23.3012 0.707107L31.3012 8.70711L32.7154 7.29289ZM2.0083 1H24.0083V-1H2.0083V1Z" fill="#F44336" mask="url(#path-1-inside-1_326_1650)"/>
    <path d="M5.14449 25V16.2727H8.41721C9.08767 16.2727 9.65017 16.3977 10.1047 16.6477C10.5621 16.8977 10.9073 17.2415 11.1402 17.679C11.376 18.1136 11.4939 18.608 11.4939 19.1619C11.4939 19.7216 11.376 20.2187 11.1402 20.6534C10.9044 21.0881 10.5564 21.4304 10.0962 21.6804C9.63596 21.9276 9.0692 22.0511 8.39591 22.0511H6.22687V20.7514H8.18284C8.57488 20.7514 8.89591 20.6832 9.14591 20.5469C9.39591 20.4105 9.58057 20.223 9.69988 19.9844C9.82204 19.7457 9.88312 19.4716 9.88312 19.1619C9.88312 18.8523 9.82204 18.5795 9.69988 18.3438C9.58057 18.108 9.39449 17.9247 9.14165 17.794C8.89165 17.6605 8.5692 17.5938 8.17432 17.5938H6.72545V25H5.14449ZM15.8245 25H12.8671V16.2727H15.8842C16.7507 16.2727 17.495 16.4474 18.1171 16.7969C18.7421 17.1435 19.2223 17.642 19.5575 18.2926C19.8927 18.9432 20.0603 19.7216 20.0603 20.6278C20.0603 21.5369 19.8913 22.3182 19.5532 22.9716C19.218 23.625 18.7336 24.1264 18.1001 24.4759C17.4694 24.8253 16.7109 25 15.8245 25ZM14.4481 23.6321H15.7478C16.3558 23.6321 16.8629 23.5213 17.2691 23.2997C17.6754 23.0753 17.9808 22.7415 18.1853 22.2983C18.3899 21.8523 18.4921 21.2955 18.4921 20.6278C18.4921 19.9602 18.3899 19.4062 18.1853 18.9659C17.9808 18.5227 17.6782 18.1918 17.2777 17.973C16.8799 17.7514 16.3856 17.6406 15.7947 17.6406H14.4481V23.6321ZM21.5625 25V16.2727H27.1534V17.598H23.1434V19.9673H26.7698V21.2926H23.1434V25H21.5625Z" fill="#F44336"/>
    <path d="M24.5083 6L24.5083 1.20711L30.8012 7.5L26.0083 7.5C25.1799 7.5 24.5083 6.82843 24.5083 6Z" fill="white" stroke="#F44336"/>
</svg>
