<svg width="32" height="40" viewBox="0 0 32 40" fill="none" xmlns="http://www.w3.org/2000/svg">
    <mask id="path-1-inside-1_313_3056" fill="white">
        <path fill-rule="evenodd" clip-rule="evenodd" d="M2 0C0.895431 0 0 0.895431 0 2V38C0 39.1046 0.895431 40 2 40H30C31.1046 40 32 39.1046 32 38V8L24 0H2Z"/>
    </mask>
    <path fill-rule="evenodd" clip-rule="evenodd" d="M2 0C0.895431 0 0 0.895431 0 2V38C0 39.1046 0.895431 40 2 40H30C31.1046 40 32 39.1046 32 38V8L24 0H2Z" fill="#E6FAEE"/>
    <path d="M32 8H33V7.58579L32.7071 7.29289L32 8ZM24 0L24.7071 -0.707107L24.4142 -1H24V0ZM1 2C1 1.44772 1.44772 1 2 1V-1C0.343145 -1 -1 0.343147 -1 2H1ZM1 38V2H-1V38H1ZM2 39C1.44772 39 1 38.5523 1 38H-1C-1 39.6569 0.343145 41 2 41V39ZM30 39H2V41H30V39ZM31 38C31 38.5523 30.5523 39 30 39V41C31.6569 41 33 39.6569 33 38H31ZM31 8V38H33V8H31ZM32.7071 7.29289L24.7071 -0.707107L23.2929 0.707107L31.2929 8.70711L32.7071 7.29289ZM2 1H24V-1H2V1Z" fill="#00C853" mask="url(#path-1-inside-1_313_3056)"/>
    <path d="M6.74432 16.2727L8.66619 19.4688H8.73438L10.6648 16.2727H12.4673L9.77841 20.6364L12.5099 25H10.6776L8.73438 21.8253H8.66619L6.72301 25H4.89915L7.65625 20.6364L4.93324 16.2727H6.74432ZM13.7085 25V16.2727H15.2894V23.6747H19.1332V25H13.7085ZM25.2482 18.6719C25.2085 18.2997 25.0408 18.0099 24.7454 17.8026C24.4528 17.5952 24.0721 17.4915 23.6033 17.4915C23.2738 17.4915 22.9911 17.5412 22.7553 17.6406C22.5195 17.7401 22.3391 17.875 22.2141 18.0455C22.0891 18.2159 22.0252 18.4105 22.0224 18.6293C22.0224 18.8111 22.0636 18.9687 22.146 19.1023C22.2312 19.2358 22.3462 19.3494 22.4911 19.4432C22.636 19.5341 22.7965 19.6108 22.9727 19.6733C23.1488 19.7358 23.3263 19.7884 23.5053 19.831L24.3235 20.0355C24.6531 20.1122 24.9698 20.2159 25.2738 20.3466C25.5806 20.4773 25.8548 20.642 26.0962 20.8409C26.3406 21.0398 26.5337 21.2798 26.6758 21.5611C26.8178 21.8423 26.8888 22.1719 26.8888 22.5497C26.8888 23.0611 26.7582 23.5114 26.4968 23.9006C26.2354 24.2869 25.8576 24.5895 25.3633 24.8082C24.8718 25.0241 24.2766 25.1321 23.5778 25.1321C22.8988 25.1321 22.3093 25.027 21.8093 24.8168C21.3121 24.6065 20.9229 24.2997 20.6417 23.8963C20.3633 23.4929 20.2127 23.0014 20.19 22.4219H21.7454C21.7681 22.7259 21.8619 22.9787 22.0266 23.1804C22.1914 23.3821 22.4059 23.5327 22.6701 23.6321C22.9371 23.7315 23.2354 23.7812 23.565 23.7812C23.9087 23.7812 24.2099 23.7301 24.4684 23.6278C24.7298 23.5227 24.9343 23.3778 25.082 23.1932C25.2298 23.0057 25.305 22.7869 25.3079 22.5369C25.305 22.3097 25.2383 22.1222 25.1076 21.9744C24.9769 21.8239 24.7937 21.6989 24.5579 21.5994C24.3249 21.4972 24.0522 21.4062 23.7397 21.3267L22.7468 21.071C22.0281 20.8864 21.4599 20.6065 21.0423 20.2315C20.6275 19.8537 20.4201 19.3523 20.4201 18.7273C20.4201 18.2131 20.5593 17.7628 20.8377 17.3764C21.119 16.9901 21.5011 16.6903 21.984 16.4773C22.467 16.2614 23.0138 16.1534 23.6246 16.1534C24.244 16.1534 24.7866 16.2614 25.2525 16.4773C25.7212 16.6903 26.0891 16.9872 26.3562 17.3679C26.6232 17.7457 26.761 18.1804 26.7695 18.6719H25.2482Z" fill="#00C853"/>
    <path d="M24.5 6L24.5 1.20711L30.7929 7.5L26 7.5C25.1716 7.5 24.5 6.82843 24.5 6Z" fill="white" stroke="#00C853"/>
</svg>
