<svg width="180" height="40" viewBox="0 0 180 40" fill="none" xmlns="http://www.w3.org/2000/svg">
    <path fill-rule="evenodd" clip-rule="evenodd" d="M17.3205 0L34.641 10V30L17.3205 40L0 30L0 10L17.3205 0ZM17.3205 4.28571L3.71154 12.1429V27.8571L17.3205 35.7143L30.9295 27.8571V12.1429L17.3205 4.28571Z" fill="#90CAF9"/>
    <path fill-rule="evenodd" clip-rule="evenodd" d="M10.3554 30L5.17774 32.9893L1.46631 30.8465L6.64387 27.8572V12.1429L1.46631 9.1536L5.17774 7.01074L10.3554 10L10.3553 18.1428L24.3206 18.1429V10L29.4808 7.02074L33.1924 9.1636L28.0321 12.1429V27.8572L33.1922 30.8363L29.4808 32.9791L24.3206 30V21.8572L10.3553 21.8571L10.3554 30Z" fill="#1E88E5"/>
    <path d="M49.8138 27.1763C54.3127 27.1763 57.9611 23.6294 57.9611 19.0049C57.9611 14.3804 54.3127 10.8335 49.8138 10.8335C45.3149 10.8335 41.6665 14.3804 41.6665 19.0049C41.6665 23.6294 45.3149 27.1763 49.8138 27.1763ZM49.8138 23.6743C47.2622 23.6743 45.2477 21.811 45.2477 19.0049C45.2477 16.1988 47.2622 14.3355 49.8138 14.3355C52.3654 14.3355 54.3799 16.1988 54.3799 19.0049C54.3799 21.811 52.3654 23.6743 49.8138 23.6743ZM63.221 26.8621V20.7335C63.221 19.1396 64.0716 18.4212 65.3026 18.4212C66.377 18.4212 67.2499 19.0723 67.2499 20.4641V26.8621H70.6073V19.9702C70.6073 16.9396 68.6824 15.3233 66.4218 15.3233C64.9445 15.3233 63.8254 15.8621 63.221 16.6927V15.6376H59.8636V26.8621H63.221ZM78.5532 27.1763C80.6795 27.1763 82.3359 26.3906 83.4326 24.8641L80.7467 23.3151C80.299 23.809 79.5156 24.1682 78.5979 24.1682C77.3669 24.1682 76.3373 23.7641 75.912 22.5968H83.8579C83.9474 22.1702 83.9922 21.7212 83.9922 21.2498C83.9922 17.86 81.5748 15.3233 78.307 15.3233C74.7705 15.3233 72.3532 17.9049 72.3532 21.2498C72.3532 24.5947 74.7257 27.1763 78.5532 27.1763ZM80.6571 20.0825H75.8449C76.1582 18.9376 77.0088 18.309 78.2846 18.309C79.2918 18.309 80.299 18.7804 80.6571 20.0825ZM89.5878 26.8621V20.6212H94.512V26.8621H98.0933V11.1478H94.512V17.1641H89.5878V11.1478H86.0066V26.8621H89.5878ZM107.472 26.5253L111.299 15.6376H107.718L105.614 22.507L103.129 15.6376H99.4362L103.89 26.3457C103.398 27.7151 102.659 28.209 101.093 28.209V31.3519C104.226 31.509 106.218 30.0947 107.472 26.5253ZM115.888 31.3519V25.807C116.626 26.66 117.723 27.1763 119.223 27.1763C122.155 27.1763 124.572 24.5947 124.572 21.2498C124.572 17.9049 122.155 15.3233 119.223 15.3233C117.723 15.3233 116.626 15.8396 115.888 16.6927V15.6376H112.53V31.3519H115.888ZM118.551 23.9886C117.007 23.9886 115.888 22.9335 115.888 21.2498C115.888 19.5661 117.007 18.511 118.551 18.511C120.095 18.511 121.215 19.5661 121.215 21.2498C121.215 22.9335 120.095 23.9886 118.551 23.9886ZM132.115 27.1763C134.241 27.1763 135.898 26.3906 136.994 24.8641L134.308 23.3151C133.861 23.809 133.077 24.1682 132.16 24.1682C130.929 24.1682 129.899 23.7641 129.474 22.5968H137.42C137.509 22.1702 137.554 21.7212 137.554 21.2498C137.554 17.86 135.137 15.3233 131.869 15.3233C128.332 15.3233 125.915 17.9049 125.915 21.2498C125.915 24.5947 128.288 27.1763 132.115 27.1763ZM134.219 20.0825H129.407C129.72 18.9376 130.571 18.309 131.846 18.309C132.854 18.309 133.861 18.7804 134.219 20.0825ZM142.814 26.8621V21.7886C142.814 19.5661 144.784 19.0049 146.171 19.2294V15.4131C144.761 15.4131 143.262 16.1315 142.814 17.6355V15.6376H139.456V26.8621H142.814ZM151.095 26.8621V20.7335C151.095 19.1396 151.946 18.4212 153.177 18.4212C154.251 18.4212 155.124 19.0723 155.124 20.4641V26.8621H158.482V19.9702C158.482 16.9396 156.557 15.3233 154.296 15.3233C152.819 15.3233 151.7 15.8621 151.095 16.6927V15.6376H147.738V26.8621H151.095ZM166.428 27.1763C168.554 27.1763 170.21 26.3906 171.307 24.8641L168.621 23.3151C168.173 23.809 167.39 24.1682 166.472 24.1682C165.241 24.1682 164.212 23.7641 163.786 22.5968H171.732C171.822 22.1702 171.867 21.7212 171.867 21.2498C171.867 17.86 169.449 15.3233 166.181 15.3233C162.645 15.3233 160.228 17.9049 160.228 21.2498C160.228 24.5947 162.6 27.1763 166.428 27.1763ZM168.532 20.0825H163.719C164.033 18.9376 164.883 18.309 166.159 18.309C167.166 18.309 168.173 18.7804 168.532 20.0825ZM179.992 26.8621V23.809C178.514 23.8988 177.686 23.809 177.686 22.8437V18.8702H179.992V15.6376H177.686V12.4947L174.329 13.5049V15.6376H172.538V18.8702H174.329V22.8437C174.329 25.9865 175.605 27.311 179.992 26.8621Z" fill="#212121"/>
</svg>
