<svg width="42" height="48" viewBox="0 0 42 48" fill="none" xmlns="http://www.w3.org/2000/svg">
    <path opacity="0.8" fill-rule="evenodd" clip-rule="evenodd"
          d="M20.7846 0L41.5692 12V36L20.7846 48L0 36L0 12L20.7846 0ZM20.7846 5.14286L4.45384 14.5714V33.4286L20.7846 42.8571L37.1154 33.4286V14.5714L20.7846 5.14286Z"
          fill="white"/>
    <path fill-rule="evenodd" clip-rule="evenodd"
          d="M12.4263 36L6.21312 39.5871L1.75941 37.0157L7.97248 33.4286V14.5714L1.75941 10.9843L6.21312 8.41286L12.4263 12L12.4262 21.7713L29.1846 21.7714V12L35.3768 8.42486L39.8308 10.9963L33.6384 14.5714V33.4286L39.8305 37.0035L35.3768 39.5749L29.1846 36V26.2286L12.4262 26.2284L12.4263 36Z"
          fill="white"/>
</svg>
