<svg width="28" height="20" viewBox="0 0 28 20" fill="none" xmlns="http://www.w3.org/2000/svg">
    <rect x="0.25" y="0.25" width="27.5" height="19.5" rx="1.75" fill="white" stroke="#F5F5F5" stroke-width="0.5"/>
    <mask id="mask0_886_431" style="mask-type:alpha" maskUnits="userSpaceOnUse" x="0" y="0" width="28" height="20">
        <rect x="0.25" y="0.25" width="27.5" height="19.5" rx="1.75" fill="white" stroke="white" stroke-width="0.5"/>
    </mask>
    <g mask="url(#mask0_886_431)">
        <path fill-rule="evenodd" clip-rule="evenodd" d="M0 10.6667H28V0H0V10.6667Z" fill="#E12237"/>
        <path fill-rule="evenodd" clip-rule="evenodd" d="M6.66663 9.3335C7.61174 9.3335 8.48029 9.00572 9.16481 8.45764C8.8022 8.5929 8.40971 8.66683 7.99996 8.66683C6.15901 8.66683 4.66663 7.17445 4.66663 5.3335C4.66663 3.49255 6.15901 2.00016 7.99996 2.00016C8.40971 2.00016 8.8022 2.0741 9.16481 2.20935C8.48029 1.66127 7.61173 1.3335 6.66663 1.3335C4.45749 1.3335 2.66663 3.12436 2.66663 5.3335C2.66663 7.54263 4.45749 9.3335 6.66663 9.3335ZM7.99996 4.66683C7.99996 5.03502 7.70148 5.3335 7.33329 5.3335C6.9651 5.3335 6.66663 5.03502 6.66663 4.66683C6.66663 4.29864 6.9651 4.00016 7.33329 4.00016C7.70148 4.00016 7.99996 4.29864 7.99996 4.66683ZM8.66663 8.00016C9.03482 8.00016 9.33329 7.70169 9.33329 7.3335C9.33329 6.96531 9.03482 6.66683 8.66663 6.66683C8.29844 6.66683 7.99996 6.96531 7.99996 7.3335C7.99996 7.70169 8.29844 8.00016 8.66663 8.00016ZM12 7.3335C12 7.70169 11.7015 8.00016 11.3333 8.00016C10.9651 8.00016 10.6666 7.70169 10.6666 7.3335C10.6666 6.96531 10.9651 6.66683 11.3333 6.66683C11.7015 6.66683 12 6.96531 12 7.3335ZM12.6666 5.3335C13.0348 5.3335 13.3333 5.03502 13.3333 4.66683C13.3333 4.29864 13.0348 4.00016 12.6666 4.00016C12.2984 4.00016 12 4.29864 12 4.66683C12 5.03502 12.2984 5.3335 12.6666 5.3335ZM10.6666 2.66683C10.6666 3.03502 10.3681 3.3335 9.99996 3.3335C9.63177 3.3335 9.33329 3.03502 9.33329 2.66683C9.33329 2.29864 9.63177 2.00016 9.99996 2.00016C10.3681 2.00016 10.6666 2.29864 10.6666 2.66683Z" fill="white"/>
    </g>
</svg>
