<svg width="28" height="20" viewBox="0 0 28 20" fill="none" xmlns="http://www.w3.org/2000/svg">
    <rect width="28" height="20" rx="2" fill="white"/>
    <mask id="mask0_973_7930" style="mask-type:alpha" maskUnits="userSpaceOnUse" x="0" y="0" width="28" height="20">
        <rect width="28" height="20" rx="2" fill="white"/>
    </mask>
    <g mask="url(#mask0_973_7930)">
        <path fill-rule="evenodd" clip-rule="evenodd" d="M28 0H0V1.33333H28V0ZM28 2.66667H0V4H28V2.66667ZM0 5.33333H28V6.66667H0V5.33333ZM28 8H0V9.33333H28V8ZM0 10.6667H28V12H0V10.6667ZM28 13.3333H0V14.6667H28V13.3333ZM0 16H28V17.3333H0V16ZM28 18.6667H0V20H28V18.6667Z" fill="#D02F44"/>
        <rect width="12" height="9.33333" fill="#46467F"/>
        <g filter="url(#filter0_d_973_7930)">
            <path fill-rule="evenodd" clip-rule="evenodd" d="M2.66671 1.99998C2.66671 2.36817 2.36823 2.66665 2.00004 2.66665C1.63185 2.66665 1.33337 2.36817 1.33337 1.99998C1.33337 1.63179 1.63185 1.33331 2.00004 1.33331C2.36823 1.33331 2.66671 1.63179 2.66671 1.99998ZM5.33337 1.99998C5.33337 2.36817 5.0349 2.66665 4.66671 2.66665C4.29852 2.66665 4.00004 2.36817 4.00004 1.99998C4.00004 1.63179 4.29852 1.33331 4.66671 1.33331C5.0349 1.33331 5.33337 1.63179 5.33337 1.99998ZM7.33337 2.66665C7.70156 2.66665 8.00004 2.36817 8.00004 1.99998C8.00004 1.63179 7.70156 1.33331 7.33337 1.33331C6.96518 1.33331 6.66671 1.63179 6.66671 1.99998C6.66671 2.36817 6.96518 2.66665 7.33337 2.66665ZM10.6667 1.99998C10.6667 2.36817 10.3682 2.66665 10 2.66665C9.63185 2.66665 9.33337 2.36817 9.33337 1.99998C9.33337 1.63179 9.63185 1.33331 10 1.33331C10.3682 1.33331 10.6667 1.63179 10.6667 1.99998ZM3.33337 3.99998C3.70156 3.99998 4.00004 3.7015 4.00004 3.33331C4.00004 2.96512 3.70156 2.66665 3.33337 2.66665C2.96518 2.66665 2.66671 2.96512 2.66671 3.33331C2.66671 3.7015 2.96518 3.99998 3.33337 3.99998ZM6.66671 3.33331C6.66671 3.7015 6.36823 3.99998 6.00004 3.99998C5.63185 3.99998 5.33337 3.7015 5.33337 3.33331C5.33337 2.96512 5.63185 2.66665 6.00004 2.66665C6.36823 2.66665 6.66671 2.96512 6.66671 3.33331ZM8.66671 3.99998C9.0349 3.99998 9.33337 3.7015 9.33337 3.33331C9.33337 2.96512 9.0349 2.66665 8.66671 2.66665C8.29852 2.66665 8.00004 2.96512 8.00004 3.33331C8.00004 3.7015 8.29852 3.99998 8.66671 3.99998ZM10.6667 4.66665C10.6667 5.03484 10.3682 5.33331 10 5.33331C9.63185 5.33331 9.33337 5.03484 9.33337 4.66665C9.33337 4.29846 9.63185 3.99998 10 3.99998C10.3682 3.99998 10.6667 4.29846 10.6667 4.66665ZM7.33337 5.33331C7.70156 5.33331 8.00004 5.03484 8.00004 4.66665C8.00004 4.29846 7.70156 3.99998 7.33337 3.99998C6.96518 3.99998 6.66671 4.29846 6.66671 4.66665C6.66671 5.03484 6.96518 5.33331 7.33337 5.33331ZM5.33337 4.66665C5.33337 5.03484 5.0349 5.33331 4.66671 5.33331C4.29852 5.33331 4.00004 5.03484 4.00004 4.66665C4.00004 4.29846 4.29852 3.99998 4.66671 3.99998C5.0349 3.99998 5.33337 4.29846 5.33337 4.66665ZM2.00004 5.33331C2.36823 5.33331 2.66671 5.03484 2.66671 4.66665C2.66671 4.29846 2.36823 3.99998 2.00004 3.99998C1.63185 3.99998 1.33337 4.29846 1.33337 4.66665C1.33337 5.03484 1.63185 5.33331 2.00004 5.33331ZM4.00004 5.99998C4.00004 6.36817 3.70156 6.66665 3.33337 6.66665C2.96518 6.66665 2.66671 6.36817 2.66671 5.99998C2.66671 5.63179 2.96518 5.33331 3.33337 5.33331C3.70156 5.33331 4.00004 5.63179 4.00004 5.99998ZM6.00004 6.66665C6.36823 6.66665 6.66671 6.36817 6.66671 5.99998C6.66671 5.63179 6.36823 5.33331 6.00004 5.33331C5.63185 5.33331 5.33337 5.63179 5.33337 5.99998C5.33337 6.36817 5.63185 6.66665 6.00004 6.66665ZM9.33337 5.99998C9.33337 6.36817 9.0349 6.66665 8.66671 6.66665C8.29852 6.66665 8.00004 6.36817 8.00004 5.99998C8.00004 5.63179 8.29852 5.33331 8.66671 5.33331C9.0349 5.33331 9.33337 5.63179 9.33337 5.99998ZM10 7.99998C10.3682 7.99998 10.6667 7.7015 10.6667 7.33331C10.6667 6.96512 10.3682 6.66665 10 6.66665C9.63185 6.66665 9.33337 6.96512 9.33337 7.33331C9.33337 7.7015 9.63185 7.99998 10 7.99998ZM8.00004 7.33331C8.00004 7.7015 7.70156 7.99998 7.33337 7.99998C6.96518 7.99998 6.66671 7.7015 6.66671 7.33331C6.66671 6.96512 6.96518 6.66665 7.33337 6.66665C7.70156 6.66665 8.00004 6.96512 8.00004 7.33331ZM4.66671 7.99998C5.0349 7.99998 5.33337 7.7015 5.33337 7.33331C5.33337 6.96512 5.0349 6.66665 4.66671 6.66665C4.29852 6.66665 4.00004 6.96512 4.00004 7.33331C4.00004 7.7015 4.29852 7.99998 4.66671 7.99998ZM2.66671 7.33331C2.66671 7.7015 2.36823 7.99998 2.00004 7.99998C1.63185 7.99998 1.33337 7.7015 1.33337 7.33331C1.33337 6.96512 1.63185 6.66665 2.00004 6.66665C2.36823 6.66665 2.66671 6.96512 2.66671 7.33331Z" fill="url(#paint0_linear_973_7930)"/>
        </g>
    </g>
    <defs>
        <filter id="filter0_d_973_7930" x="1.33337" y="1.33331" width="9.33337" height="7.66669" filterUnits="userSpaceOnUse" color-interpolation-filters="sRGB">
            <feFlood flood-opacity="0" result="BackgroundImageFix"/>
            <feColorMatrix in="SourceAlpha" type="matrix" values="0 0 0 0 0 0 0 0 0 0 0 0 0 0 0 0 0 0 127 0" result="hardAlpha"/>
            <feOffset dy="1"/>
            <feColorMatrix type="matrix" values="0 0 0 0 0 0 0 0 0 0 0 0 0 0 0 0 0 0 0.06 0"/>
            <feBlend mode="normal" in2="BackgroundImageFix" result="effect1_dropShadow_973_7930"/>
            <feBlend mode="normal" in="SourceGraphic" in2="effect1_dropShadow_973_7930" result="shape"/>
        </filter>
        <linearGradient id="paint0_linear_973_7930" x1="1.33337" y1="1.33331" x2="1.33337" y2="7.99998" gradientUnits="userSpaceOnUse">
            <stop stop-color="white"/>
            <stop offset="1" stop-color="#F0F0F0"/>
        </linearGradient>
    </defs>
</svg>
